# xmcd
# Track frame offsets:
# 183
# 22573
# 41598
# 55300
# 73765
# 90728
# 108018
# 123718
# 145808
# 167593
#
# Disc length: 2477 seconds
# Revision: 3
# Processed by: cddbd v1.4PL0 Copyright (c) Steve Scherf et al.
# Submitted via: VisiTrax 2.9.5.180 - For more info visit www.synapsa.com
#
DISCID=7e09ab0a
DTITLE=Bachata - Bachata Magic
DYEAR=1992
DGENRE=Bachata
TTITLE0=Bailar Pegado
TTITLE1=Dejame Llorar
TTITLE2=Si Piensas, Si Quieres
TTITLE3=Quiero Amanacer Con Alguien
TTITLE4=El Que Mas Te Ha Querido
TTITLE5=Por Que Sera
TTITLE6=Sola
TTITLE7=Amor Mio, Que Mas Hecho
TTITLE8=Nada Se Compara Contigo
TTITLE9=Que Nada Nos Separe
EXTD=0
EXTT0=
EXTT1=
EXTT2=
EXTT3=
EXTT4=
EXTT5=
EXTT6=
EXTT7=
EXTT8=
EXTT9=
PLAYORDER=
